<?xml version="1.0" encoding="UTF-8" standalone="no"?>
<svg
   xmlns:dc="http://purl.org/dc/elements/1.1/"
   xmlns:cc="http://creativecommons.org/ns#"
   xmlns:rdf="http://www.w3.org/1999/02/22-rdf-syntax-ns#"
   xmlns:svg="http://www.w3.org/2000/svg"
   xmlns="http://www.w3.org/2000/svg"
   xmlns:sodipodi="http://sodipodi.sourceforge.net/DTD/sodipodi-0.dtd"
   xmlns:inkscape="http://www.inkscape.org/namespaces/inkscape"
   width="100"
   height="100"
   viewBox="0 0 100 100"
   version="1.1"
   id="svg847"
   sodipodi:docname="icon.svg"
   inkscape:version="0.92.3 (2405546, 2018-03-11)">
  <metadata
     id="metadata853">
    <rdf:RDF>
      <cc:Work
         rdf:about="">
        <dc:format>image/svg+xml</dc:format>
        <dc:type
           rdf:resource="http://purl.org/dc/dcmitype/StillImage" />
      </cc:Work>
    </rdf:RDF>
  </metadata>
  <defs
     id="defs851" />
  <sodipodi:namedview
     pagecolor="#ffffff"
     bordercolor="#666666"
     borderopacity="1"
     objecttolerance="10"
     gridtolerance="10"
     guidetolerance="10"
     inkscape:pageopacity="0"
     inkscape:pageshadow="2"
     inkscape:window-width="1920"
     inkscape:window-height="1017"
     id="namedview849"
     showgrid="false"
     inkscape:zoom="6.1164737"
     inkscape:cx="70.247625"
     inkscape:cy="48.118189"
     inkscape:window-x="1912"
     inkscape:window-y="-8"
     inkscape:window-maximized="1"
     inkscape:current-layer="svg847" />
  <path
     style="color:#000000;font-style:normal;font-variant:normal;font-weight:normal;font-stretch:normal;font-size:medium;line-height:normal;font-family:Sans;-inkscape-font-specification:Sans;text-indent:0;text-align:start;text-decoration:none;text-decoration-line:none;letter-spacing:normal;word-spacing:normal;text-transform:none;writing-mode:lr-tb;direction:ltr;baseline-shift:baseline;text-anchor:start;display:inline;overflow:visible;visibility:visible;opacity:1;fill:#23843e;fill-opacity:1;stroke:none;stroke-width:4;marker:none;enable-background:accumulate"
     d="m 34.169533,17.798422 c -0.753089,0 -1.471827,0.222748 -2.073777,0.721148 -0.601951,0.4984 -1.106015,1.37249 -1.106015,2.37378 v 6.370144 h -6.276634 c -0.754702,0 -1.472677,0.250969 -2.073778,0.751196 -0.6011,0.500227 -1.106014,1.344999 -1.106014,2.343732 v 6.400191 H 15.22903 c 0.07453,0 -0.118347,-0.04312 -0.553007,0.03005 -1.268316,0.213844 -2.626785,1.266625 -2.626785,3.034832 v 40.264114 c 0,0.998743 0.504914,1.843544 1.106014,2.343732 0.601101,0.500285 1.319076,0.751197 2.073778,0.751197 h 52.563352 c 0.754702,0 1.472678,-0.250912 2.073778,-0.751197 0.601101,-0.500188 1.106015,-1.344989 1.106015,-2.343732 v -6.370143 h 6.276634 c 0.754702,0 1.472677,-0.251008 2.073777,-0.751196 0.601101,-0.500285 1.106015,-1.34499 1.106015,-2.343732 v -6.400191 h 6.304284 c 0.753089,0 1.471827,-0.222691 2.073778,-0.721149 0.601954,-0.498361 1.106013,-1.372537 1.106013,-2.37378 V 20.89335 c 0,-1.00129 -0.504059,-1.87538 -1.106013,-2.37378 -0.601951,-0.4984 -1.320689,-0.721148 -2.073778,-0.721148 z m 0.359455,3.846124 H 86.373431 V 60.37622 H 34.528988 Z m -9.456426,9.465072 h 5.917179 v 30.017798 c 0,1.001243 0.504064,1.875419 1.106015,2.37378 0.60195,0.498458 1.320688,0.721149 2.073777,0.721149 H 76.889354 V 69.87134 H 25.072562 Z m -9.484077,9.495119 h 5.94483 v 30.017799 c 0,0.998742 0.504914,1.843447 1.106014,2.343732 0.601101,0.500188 1.319076,0.751196 2.073778,0.751196 h 42.719821 v 5.618947 H 15.588485 Z"
     id="path837"
     inkscape:connector-curvature="0" />
</svg>
